Coordinates
version=1
nRows=34
nColumns=19
inDegrees=yes

Units are S.I. units (second, meters, Newtons, ...)
If the header above contains a line with 'inDegrees', this indicates whether rotational values are in degrees (yes) or radians (no).

endheader
time	pelvis_tilt	pelvis_list	pelvis_rotation	pelvis_tx	pelvis_ty	pelvis_tz	hip_flexion_r	hip_adduction_r	hip_rotation_r	knee_angle_r	knee_angle_r_beta	ankle_angle_r	hip_flexion_l	hip_adduction_l	hip_rotation_l	knee_angle_l	knee_angle_l_beta	ankle_angle_l
     17.19333333	     -1.73977494	      5.10256118	      1.28093650	      2.23552401	      0.92831003	      0.99548024	    -13.14587538	    -10.33381068	    -11.08758611	     69.10515490	      1.20611248	     -4.76848274	     20.24818812	      9.30738298	     -4.86569992	     13.93099939	      0.24314181	      4.36679919
     17.20000000	     -1.92148034	      5.15594996	      1.47185561	      2.23560864	      0.92250542	      0.99548846	    -11.79546724	    -10.23967648	    -10.15344054	     72.88913995	      1.27215548	     -4.38196183	     21.24359155	      9.20593889	     -5.44368396	     17.01471015	      0.29696271	      4.76677494
     17.20666667	     -1.70418853	      5.37205784	      1.68621600	      2.23568462	      0.91680544	      0.99562532	    -10.93471142	    -10.33032032	     -9.47074853	     76.51170191	      1.33538111	     -3.98225357	     21.78900257	      9.26237106	     -5.98510880	     20.24112110	      0.35327421	      5.33400962
     17.21333333	     -1.62834162	      5.54304711	      1.94132078	      2.23560770	      0.91074665	      0.99579279	     -9.85552909	    -10.35934249	     -8.84174178	     80.08763850	      1.39779298	     -3.58985883	     22.52876839	      9.27718248	     -6.42402581	     23.68762189	      0.41342699	      6.21153289
     17.22000000	     -1.59310007	      5.66351016	      2.21874072	      2.23533016	      0.90455879	      0.99598525	     -8.65908989	    -10.33884295	     -8.27727596	     83.58467759	      1.45882783	     -3.23084489	     23.29127936	      9.25750223	     -6.74072689	     27.19663612	      0.47467085	      7.37936626
     17.22666667	     -1.68210775	      5.74993898	      2.55904624	      2.23482936	      0.89826412	      0.99614226	     -7.25073221	    -10.29313138	     -7.79590845	     87.00501608	      1.51852400	     -2.84211271	     24.12370057	      9.26078119	     -6.85918048	     30.65805738	      0.53508404	      8.82350197
     17.23333333	     -1.76278315	      5.80259859	      2.89390501	      2.23407166	      0.89217879	      0.99632100	     -5.75095307	    -10.23730008	     -7.35553247	     90.31121768	      1.57622810	     -2.47157990	     24.83224840	      9.26905986	     -6.84311125	     33.94307102	      0.59241835	     10.51801581
     17.24000000	     -1.20638594	      6.25149445	      3.24300011	      2.23339809	      0.88715240	      0.99643973	     -5.02680883	    -10.70835429	     -7.17042192	     93.33476880	      1.62899902	     -2.16894083	     24.48934479	      9.73178861	     -6.80659861	     36.62355569	      0.63920163	     12.38382902
     17.24666667	     -2.16142077	      5.81215051	      3.65923406	      2.23187670	      0.88083441	      0.99651646	     -2.15881016	    -10.07985429	     -6.58704995	     96.52554106	      1.68468850	     -1.86035142	     26.01808618	      9.37714057	     -6.36283336	     39.70032109	      0.69290132	     14.40808013
     17.25333333	     -2.40762745	      5.82812501	      4.02072139	      2.23042963	      0.87590593	      0.99659968	     -0.12508422	    -10.06889603	     -6.21294861	     99.39176261	      1.73471351	     -1.55192383	     26.35605976	      9.50207612	     -5.99160736	     42.01487646	      0.73329793	     16.40910367
     17.26000000	     -2.65792958	      5.79561808	      4.36779349	      2.22880688	      0.87164186	      0.99668744	      2.04601492	    -10.01368477	     -5.82801314	    102.04028765	      1.78093899	     -1.31123856	     26.48379661	      9.60254762	     -5.53041034	     43.93836263	      0.76686910	     18.38766653
     17.26666667	     -2.89541549	      5.74125511	      4.66724830	      2.22704039	      0.86812998	      0.99680244	      4.33214386	     -9.94253745	     -5.41213925	    104.44444246	      1.82289941	     -1.12272589	     26.37106927	      9.67513455	     -5.04598559	     45.43742630	      0.79303269	     20.22863480
     17.27333333	     -3.10330533	      5.66155163	      4.89953059	      2.22522404	      0.86542361	      0.99697466	      6.70056169	     -9.83854814	     -4.95360451	    106.56567254	      1.85992186	     -0.97985238	     26.00157638	      9.69195287	     -4.57457893	     46.51999327	      0.81192705	     21.90138389
     17.28000000	     -3.25996049	      5.56614461	      5.05257855	      2.22341838	      0.86357353	      0.99721280	      9.10761618	     -9.70508006	     -4.45751643	    108.37372270	      1.89147828	     -0.90073060	     25.35330208	      9.64846477	     -4.14146176	     47.18654159	      0.82356051	     23.35493172
     17.28666667	     -3.40054740	      5.42822958	      5.16974684	      2.22168592	      0.86251788	      0.99747376	     11.54406887	     -9.51365941	     -3.98564352	    109.83253788	      1.91693941	     -0.85981295	     24.48060825	      9.53749522	     -3.70078074	     47.46913614	      0.82849272	     24.58383189
     17.29333333	     -3.15491475	      5.29467178	      5.31315352	      2.22019633	      0.86273641	      0.99766671	     13.47359363	     -9.34274346	     -3.69802868	    110.81899912	      1.93415641	     -0.82033622	     22.93934159	      9.42307356	     -3.14012736	     47.31248507	      0.82575864	     25.59171873
     17.30000000	     -3.01492167	      5.10143565	      5.41872355	      2.21875555	      0.86357524	      0.99793871	     15.54673722	     -9.03822323	     -3.39454632	    111.47559284	      1.94561613	     -0.79363235	     21.37330197	      9.21482512	     -2.59457166	     46.86997745	      0.81803543	     26.26881106
     17.30666667	     -3.29264521	      4.96701225	      5.04426086	      2.21765791	      0.86464651	      0.99863466	     18.24357487	     -8.71607892	     -2.60665762	    111.90306386	      1.95307691	     -0.95974560	     20.06278721	      8.85817868	     -2.72810471	     46.02864003	      0.80335132	     26.74405139
     17.31333333	     -3.37625563	      4.61000177	      5.13116605	      2.21678997	      0.86662070	      0.99882080	     20.41013921	     -8.27709940	     -2.51153533	    111.78387457	      1.95099666	     -0.91774978	     18.44006820	      8.46899625	     -2.18725098	     45.02556884	      0.78584442	     26.96967783
     17.32000000	     -3.50064392	      4.39735621	      4.86101789	      2.21620740	      0.86922687	      0.99939348	     22.64713563	     -7.86050685	     -2.07488558	    111.37324510	      1.94382983	     -1.00224071	     16.65791401	      8.09261167	     -2.09263442	     43.60492666	      0.76104954	     26.88902607
     17.32666667	     -3.54892095	      4.09865533	      4.71159217	      2.21592683	      0.87254453	      0.99979342	     24.57689247	     -7.40566622	     -1.90934836	    110.53065689	      1.92912389	     -0.97745392	     14.67867841	      7.67923319	     -1.81377231	     41.96224650	      0.73237936	     26.55345908
     17.33333333	     -3.95159921	      3.56161685	      4.82845416	      2.21591869	      0.87585074	      0.99989447	     26.66686753	     -6.89566866	     -2.20600460	    109.32491415	      1.90807971	     -0.80270347	     13.10991283	      7.05788287	     -1.37532475	     40.36428477	      0.70448967	     26.08053256
     17.34000000	     -3.42424936	      3.38903858	      4.47598572	      2.21634056	      0.88106402	      1.00043895	     27.61348787	     -6.45823077	     -1.99860269	    107.71909086	      1.88005280	     -0.76676448	     10.11592126	      6.73265063	     -1.16913678	     37.92130264	      0.66185159	     24.96169759
     17.34666667	     -3.65258238	      3.02640504	      4.31174956	      2.21690698	      0.88565401	      1.00078268	     29.23798208	     -5.98802268	     -2.06837186	    105.88708556	      1.84807828	     -0.61257918	      8.04528828	      6.26209105	     -0.94191715	     35.63368224	      0.62192508	     23.65136122
     17.35333333	     -4.41612089	      2.34740563	      4.43643322	      2.21760706	      0.88986380	      1.00085576	     31.23543349	     -5.39575438	     -2.60620744	    103.75283865	      1.81082864	     -0.30730475	      6.72841731	      5.47717028	     -0.58858711	     33.61273988	      0.58665298	     22.18267525
     17.36000000	     -3.64916724	      2.16239654	      4.13039657	      2.21902716	      0.89643172	      1.00126026	     31.28012299	     -5.03013415	     -2.67452683	    101.19651353	      1.76621235	     -0.02968703	      3.19667190	      5.14639178	     -0.39133879	     30.50137631	      0.53234944	     19.93681906
     17.36666667	     -3.71563330	      1.70434883	      4.07456392	      2.22042899	      0.90207760	      1.00141671	     32.10540343	     -4.60080162	     -3.10868546	     98.45731706	      1.71840436	      0.32776137	      0.82379931	      4.55960144	     -0.15026301	     27.78001221	      0.48485268	     17.52136844
     17.37333333	     -3.84701914	      1.28636569	      4.00698646	      2.22207725	      0.90772819	      1.00153742	     32.83793429	     -4.25470779	     -3.56939937	     95.50602990	      1.66689468	      0.72770873	     -1.48483213	      4.01856529	      0.02490125	     24.97827295	      0.43595310	     14.74900125
     17.38000000	     -3.99804621	      0.88384061	      3.98674169	      2.22385227	      0.91337784	      1.00155769	     33.42444979	     -3.98924260	     -4.12748136	     92.34062796	      1.61164799	      1.18035217	     -3.71419591	      3.48799765	      0.16855493	     22.20097337	      0.38748008	     11.65460819
     17.38666667	     -4.05327897	      0.42237602	      4.00458211	      2.22580818	      0.91908503	      1.00149339	     33.72176322	     -3.72360489	     -4.83732726	     88.93034897	      1.55212739	      1.61077688	     -5.97838022	      2.87604529	      0.27721325	     19.47945151	      0.33998057	      8.42481214
     17.39333333	     -4.25470077	      0.08919572	      4.02235026	      2.22787496	      0.92442473	      1.00139051	     34.06463812	     -3.64727308	     -5.55551129	     85.41068406	      1.49069765	      2.09537618	     -8.00264496	      2.41289323	      0.33822180	     16.86677890	      0.29438083	      5.03095757
     17.40000000	     -4.35850343	     -0.29968384	      4.12267632	      2.22995210	      0.92970924	      1.00116574	     34.12944183	     -3.57859156	     -6.47004835	     81.66500500	      1.42532322	      2.56665662	     -9.94976057	      1.86258869	      0.37694699	     14.54238737	      0.25381254	      1.70954353
     17.40666667	     -4.65293881	     -0.52283680	      4.20831324	      2.23200196	      0.93445530	      1.00095724	     34.32201144	     -3.70210926	     -7.36976956	     77.84836453	      1.35871028	      3.03626590	    -11.53776438	      1.50117402	      0.38302020	     12.50338150	      0.21822517	     -1.51694788
     17.41333333	     -4.80757093	     -0.74652746	      4.31467800	      2.23401196	      0.93907046	      1.00073627	     34.22800576	     -3.84016164	     -8.41710278	     73.85736975	      1.28905428	      3.50326769	    -13.06350703	      1.11191983	      0.28049713	     10.87476418	      0.18980044	     -4.43213512
